<svg xmlns="http://www.w3.org/2000/svg" width="563" height="332" viewBox="0 0 563 332" role="img" aria-labelledby="title desc">
<title id="title">Callback request call flow</title><desc id="desc">Callback request workflow showing call attempts, consultation, voicemail, missed appointment template, and lead notes.</desc>
<defs><marker id="b" markerWidth="8" markerHeight="8" refX="7" refY="3" orient="auto"><path d="M0 0 8 3 0 6z" fill="#407ff2"/></marker><marker id="g" markerWidth="8" markerHeight="8" refX="7" refY="3" orient="auto"><path d="M0 0 8 3 0 6z" fill="#00d929"/></marker><marker id="r" markerWidth="8" markerHeight="8" refX="7" refY="3" orient="auto"><path d="M0 0 8 3 0 6z" fill="#f00000"/></marker><style>text{font-family:Arial,sans-serif;fill:#111;font-size:11px}.box{stroke:#555;stroke-width:1}.b{fill:none;stroke:#407ff2;stroke-width:1.4;marker-end:url(#b)}.g{fill:none;stroke:#00d929;stroke-width:1.4;marker-end:url(#g)}.r{fill:none;stroke:#f00000;stroke-width:1.4;marker-end:url(#r)}</style></defs>
<rect class="box" x="6" y="9" width="107" height="61" fill="#dcebd7"/><text x="59" y="35" text-anchor="middle">PRE-CALL</text><text x="59" y="50" text-anchor="middle">PREPARATIONS</text><rect class="box" x="153" y="9" width="108" height="61" fill="#d8e1e5"/><text x="207" y="35" text-anchor="middle">1ST CALL</text><text x="207" y="50" text-anchor="middle">ATTEMPT</text><rect class="box" x="301" y="9" width="108" height="61" fill="#c9dce1"/><text x="355" y="35" text-anchor="middle">CALL BACK</text><text x="355" y="50" text-anchor="middle">REQUEST</text><rect class="box" x="448" y="9" width="107" height="61" fill="#c9dce1"/><text x="501" y="35" text-anchor="middle">CALL BACK</text><text x="501" y="50" text-anchor="middle">ATTEMPT</text><path class="b" d="M113 39h39"/><path class="g" d="M261 39h39"/><path class="b" d="M409 39h39"/>
<rect class="box" x="153" y="94" width="108" height="61" fill="#d8e1e5"/><text x="207" y="120" text-anchor="middle">2ND CALL</text><text x="207" y="135" text-anchor="middle">ATTEMPT</text><path class="r" d="M207 70v23"/><path class="g" d="M261 124h20V70"/><rect class="box" x="76" y="155" width="108" height="67" fill="#fff3ca"/><text x="130" y="176" text-anchor="middle">SEND</text><text x="130" y="190" text-anchor="middle">UNRESPONSIVE-</text><text x="130" y="204" text-anchor="middle">PHONE</text><text x="130" y="218" text-anchor="middle">TEMPLATE</text><path class="r" d="M153 124H76v30"/>
<rect class="box" x="301" y="163" width="108" height="62" fill="#fff900"/><text x="355" y="184" text-anchor="middle">PROCEED WITH</text><text x="355" y="198" text-anchor="middle">CONSULTATION</text><text x="355" y="212" text-anchor="middle">CALL FLOW</text><path class="b" d="M355 70v92"/><rect class="box" x="448" y="143" width="107" height="62" fill="#c9dce1"/><text x="501" y="169" text-anchor="middle">LEAVE</text><text x="501" y="184" text-anchor="middle">VOICEMAIL</text><path class="r" d="M501 70v72"/><path class="g" d="M501 70l-92 92"/>
<rect class="box" x="402" y="264" width="108" height="61" fill="#fce4c9"/><text x="456" y="285" text-anchor="middle">SEND MISSED</text><text x="456" y="299" text-anchor="middle">APPT/ CALENDLY</text><text x="456" y="313" text-anchor="middle">LINK TEMPLATE</text><path class="b" d="M501 205v28h-45v30"/><rect class="box" x="22" y="237" width="156" height="94" fill="#dcebd7"/><text x="40" y="251">•</text><text x="57" y="251">TICK OFF OPEN CALL</text><text x="57" y="263">TASK</text><text x="40" y="277">•</text><text x="57" y="277">CHANGE THE LEAD</text><text x="57" y="289">STATUS TO</text><text x="57" y="301">‘ATTEMPTED’</text><text x="40" y="315">•</text><text x="57" y="315">LEAVE NOTES: ‘LVM OR</text><text x="57" y="327">LMOM’</text><path class="b" d="M130 216v20"/>
<rect class="box" x="198" y="237" width="144" height="94" fill="#dcebd7"/><text x="215" y="251">•</text><text x="232" y="251">TICK OFF OPEN CALL</text><text x="232" y="263">TASK</text><text x="215" y="277">•</text><text x="232" y="277">CHANGE THE LEAD</text><text x="232" y="289">STATUS TO</text><text x="232" y="301">‘COMMUNICATING’</text><text x="215" y="315">•</text><text x="232" y="315">LEAVE PERTINENT</text><text x="232" y="327">NOTES</text><path class="b" d="M355 225v24h-13"/><path class="b" d="M402 294h-30v-13h-30"/>
</svg>
